<svg xmlns="http://www.w3.org/2000/svg" version="1.1" xmlns:xlink="http://www.w3.org/1999/xlink" xmlns:svgjs="http://svgjs.dev/svgjs" width="128" height="128" viewBox="0 0 128 128"><g transform="matrix(0.8046875,0,0,0.8046875,12.46904063990462,5.47196320564516)"><svg viewBox="0 0 136 155" data-background-color="#000000" preserveAspectRatio="xMidYMid meet" height="145" width="128" xmlns="http://www.w3.org/2000/svg" xmlns:xlink="http://www.w3.org/1999/xlink"><g id="tight-bounds" transform="matrix(1,0,0,1,0.040878378378366165,0.25)"><svg viewBox="0 0 135.91824324324324 154.5" height="154.5" width="135.91824324324324"><g><svg viewBox="0 0 135.91824324324324 154.5" height="154.5" width="135.91824324324324"><g><svg viewBox="0 0 135.91824324324324 154.5" height="154.5" width="135.91824324324324"><g id="textblocktransform"><svg viewBox="0 0 135.91824324324324 154.5" height="154.5" width="135.91824324324324" id="textblock"><g><svg viewBox="0 0 135.91824324324324 154.5" height="154.5" width="135.91824324324324"><g transform="matrix(1,0,0,1,0,0)"><svg width="135.91824324324324" viewBox="2.95 -36.5 32.55 37" height="154.5" data-palette-color="#ff0033"><path d="M20.25-31L20.25-31 9.35-31 9.35-16.55 20.25-16.55Q23.35-16.55 24.4-18.05 25.45-19.55 25.45-22.3L25.45-22.3 25.45-25.8Q25.45-28.1 24.18-29.55 22.9-31 20.25-31ZM14.75-20.6L14.75-27 18.5-27Q19.8-27 20.25-26.33 20.7-25.65 20.7-24.65L20.7-24.65 20.7-22.95Q20.7-21.95 20.25-21.28 19.8-20.6 18.5-20.6L18.5-20.6 14.75-20.6ZM18.5-26.5L18.5-26.5 15.25-26.5 15.25-21.1 18.5-21.1Q19.55-21.1 19.88-21.63 20.2-22.15 20.2-22.95L20.2-22.95 20.2-24.65Q20.2-25.45 19.88-25.98 19.55-26.5 18.5-26.5ZM9.35-16.1L9.35-4.5 8.85-4.5 8.85-31.5 20.25-31.5Q23.15-31.5 24.55-29.88 25.95-28.25 25.95-25.8L25.95-25.8 25.95-22.35Q25.95-20.05 25.35-18.57 24.75-17.1 22.95-16.55L22.95-16.55 23.5-16.55Q26.55-16.55 28.05-15.18 29.55-13.8 29.55-11.2L29.55-11.2 29.55-4.5 29.05-4.5 29.05-11.2Q29.05-13.65 27.7-14.88 26.35-16.1 23.5-16.1L23.5-16.1 9.35-16.1ZM5.25 0L12.95 0Q13.9 0 14.33-0.43 14.75-0.85 14.75-1.8L14.75-1.8 14.75-11.6 21.75-11.6Q22.8-11.6 23.23-11.08 23.65-10.55 23.65-9.45L23.65-9.45 23.65-1.8Q23.65-0.85 24.08-0.43 24.5 0 25.45 0L25.45 0 33.2 0Q34.15 0 34.58-0.43 35-0.85 35-1.8L35-1.8 35-12.4Q35-15.55 33.33-17.45 31.65-19.35 28.95-19.65L28.95-19.65Q30.5-20.3 31.13-21.78 31.75-23.25 31.75-25.35L31.75-25.35 31.75-27.65Q31.75-31.35 29.63-33.68 27.5-36 21.9-36L21.9-36 5.25-36Q4.3-36 3.88-35.58 3.45-35.15 3.45-34.2L3.45-34.2 3.45-1.8Q3.45-0.85 3.88-0.43 4.3 0 5.25 0L5.25 0ZM12.95 0.5L12.95 0.5 5.25 0.5Q4.05 0.5 3.5-0.05 2.95-0.6 2.95-1.8L2.95-1.8 2.95-34.2Q2.95-35.4 3.5-35.95 4.05-36.5 5.25-36.5L5.25-36.5 21.9-36.5Q27.85-36.5 30.05-34.02 32.25-31.55 32.25-27.65L32.25-27.65 32.25-25.35Q32.25-23.5 31.8-22.13 31.35-20.75 30.3-19.9L30.3-19.9Q32.65-19.25 34.08-17.3 35.5-15.35 35.5-12.4L35.5-12.4 35.5-1.8Q35.5-0.6 34.95-0.05 34.4 0.5 33.2 0.5L33.2 0.5 25.45 0.5Q24.25 0.5 23.7-0.05 23.15-0.6 23.15-1.8L23.15-1.8 23.15-9.45Q23.15-10.25 22.85-10.68 22.55-11.1 21.75-11.1L21.75-11.1 15.25-11.1 15.25-1.8Q15.25-0.6 14.7-0.05 14.15 0.5 12.95 0.5Z" opacity="1" transform="matrix(1,0,0,1,0,0)" fill="#ffffff" class="wordmark-text-0" data-fill-palette-color="primary" id="text-0"></path></svg></g></svg></g></svg></g></svg></g></svg></g><defs></defs></svg><rect width="135.91824324324324" height="154.5" fill="none" stroke="none" visibility="hidden"></rect></g></svg></g></svg>